<svg width="175" height="12" viewBox="0 0 175 12" fill="none" xmlns="http://www.w3.org/2000/svg">
<path d="M0.966003 1.00411V11.0001H3.164V6.68811H7.21V11.0001H9.408V1.00411H7.21V4.84011H3.164V1.00411H0.966003Z" fill="#34C759"/>
<path d="M13.443 1.00411V11.0001H21.031V9.15211H15.641V6.70211H20.485V4.99411H15.641V2.85211H20.919V1.00411H13.443Z" fill="#34C759"/>
<path d="M27.1411 7.13611L28.4431 3.46811H28.4711L29.7311 7.13611H27.1411ZM27.3511 1.00411L23.5711 11.0001H25.7831L26.5671 8.77411H30.3051L31.0611 11.0001H33.3431L29.6051 1.00411H27.3511Z" fill="#34C759"/>
<path d="M36.3051 1.00411V11.0001H43.3751V9.15211H38.5031V1.00411H36.3051Z" fill="#34C759"/>
<path d="M47.6307 2.85211V11.0001H49.8287V2.85211H52.8247V1.00411H44.6347V2.85211H47.6307Z" fill="#34C759"/>
<path d="M56.0773 1.00411V11.0001H58.2753V6.68811H62.3213V11.0001H64.5193V1.00411H62.3213V4.84011H58.2753V1.00411H56.0773Z" fill="#34C759"/>
<path d="M71.1443 7.10811V11.0001H73.3423V7.16411L77.0523 1.00411H74.6023L72.2783 4.95211L69.9403 1.00411H67.4763L71.1443 7.10811Z" fill="#34C759"/>
<path d="M87.4867 7.68211H85.3587C85.3493 8.29811 85.4613 8.83011 85.6947 9.27811C85.928 9.72611 86.2407 10.0948 86.6327 10.3841C87.034 10.6734 87.4913 10.8834 88.0047 11.0141C88.5273 11.1541 89.064 11.2241 89.6147 11.2241C90.296 11.2241 90.8933 11.1448 91.4067 10.9861C91.9293 10.8274 92.3633 10.6081 92.7087 10.3281C93.0633 10.0388 93.3293 9.69811 93.5067 9.30611C93.684 8.91411 93.7727 8.48945 93.7727 8.03211C93.7727 7.47211 93.6513 7.01478 93.4087 6.66011C93.1753 6.29611 92.8953 6.00678 92.5687 5.79211C92.242 5.57745 91.9107 5.42345 91.5747 5.33011C91.248 5.22745 90.9913 5.15745 90.8047 5.12011C90.1793 4.96145 89.6707 4.83078 89.2787 4.72811C88.896 4.62545 88.5927 4.52278 88.3687 4.42011C88.154 4.31745 88.0093 4.20545 87.9347 4.08411C87.86 3.96278 87.8227 3.80411 87.8227 3.60811C87.8227 3.39345 87.8693 3.21611 87.9627 3.07611C88.056 2.93611 88.1727 2.81945 88.3127 2.72611C88.462 2.63278 88.6253 2.56745 88.8027 2.53011C88.98 2.49278 89.1573 2.47411 89.3347 2.47411C89.6053 2.47411 89.8527 2.49745 90.0767 2.54411C90.31 2.59078 90.5153 2.67011 90.6927 2.78211C90.87 2.89411 91.01 3.04811 91.1127 3.24411C91.2247 3.44011 91.29 3.68745 91.3087 3.98611H93.4367C93.4367 3.40745 93.3247 2.91745 93.1007 2.51611C92.886 2.10545 92.592 1.76945 92.2187 1.50811C91.8453 1.24678 91.416 1.06011 90.9307 0.948113C90.4547 0.82678 89.9553 0.766113 89.4327 0.766113C88.9847 0.766113 88.5367 0.82678 88.0887 0.948113C87.6407 1.06945 87.2393 1.25611 86.8847 1.50811C86.53 1.76011 86.2407 2.07745 86.0167 2.46011C85.802 2.83345 85.6947 3.27678 85.6947 3.79011C85.6947 4.24745 85.7787 4.63945 85.9467 4.96611C86.124 5.28345 86.3527 5.54945 86.6327 5.76411C86.9127 5.97878 87.23 6.15611 87.5847 6.29611C87.9393 6.42678 88.3033 6.53878 88.6767 6.63211C89.0407 6.73478 89.4 6.82811 89.7547 6.91211C90.1093 6.99611 90.4267 7.09411 90.7067 7.20611C90.9867 7.31811 91.2107 7.45811 91.3787 7.62611C91.556 7.79411 91.6447 8.01345 91.6447 8.28411C91.6447 8.53611 91.5793 8.74611 91.4487 8.91411C91.318 9.07278 91.1547 9.19878 90.9587 9.29211C90.7627 9.38545 90.5527 9.45078 90.3287 9.48811C90.1047 9.51611 89.8947 9.53011 89.6987 9.53011C89.4093 9.53011 89.1293 9.49745 88.8587 9.43211C88.588 9.35745 88.35 9.25011 88.1447 9.11011C87.9487 8.96078 87.79 8.76945 87.6687 8.53611C87.5473 8.30278 87.4867 8.01811 87.4867 7.68211Z" fill="#34C759"/>
<path d="M106.7 11.0001L109.388 1.00411H107.232L105.594 7.89211H105.566L103.858 1.00411H101.8L100.064 7.80811H100.036L98.4545 1.00411H96.2565L98.9025 11.0001H101.128L102.794 4.19611H102.822L104.516 11.0001H106.7Z" fill="#34C759"/>
<path d="M112.501 1.00411V11.0001H114.699V1.00411H112.501Z" fill="#34C759"/>
<path d="M120.942 2.85211V11.0001H123.14V2.85211H126.136V1.00411H117.946V2.85211H120.942Z" fill="#34C759"/>
<path d="M136.053 4.36411H138.181C138.115 3.78545 137.957 3.27211 137.705 2.82411C137.453 2.37611 137.131 2.00278 136.739 1.70411C136.356 1.39611 135.917 1.16278 135.423 1.00411C134.937 0.845446 134.419 0.766113 133.869 0.766113C133.103 0.766113 132.413 0.901447 131.797 1.17211C131.19 1.44278 130.677 1.81611 130.257 2.29211C129.837 2.76811 129.515 3.32811 129.291 3.97211C129.067 4.60678 128.955 5.29745 128.955 6.04411C128.955 6.77211 129.067 7.45345 129.291 8.08811C129.515 8.71345 129.837 9.25945 130.257 9.72611C130.677 10.1928 131.19 10.5614 131.797 10.8321C132.413 11.0934 133.103 11.2241 133.869 11.2241C134.485 11.2241 135.049 11.1308 135.563 10.9441C136.076 10.7574 136.524 10.4868 136.907 10.1321C137.289 9.77745 137.597 9.34811 137.831 8.84411C138.064 8.34011 138.209 7.77545 138.265 7.15011H136.137C136.053 7.82211 135.819 8.36345 135.437 8.77411C135.063 9.18478 134.541 9.39011 133.869 9.39011C133.374 9.39011 132.954 9.29678 132.609 9.11011C132.263 8.91411 131.983 8.65745 131.769 8.34011C131.554 8.02278 131.395 7.66811 131.293 7.27611C131.199 6.87478 131.153 6.46411 131.153 6.04411C131.153 5.60545 131.199 5.18078 131.293 4.77011C131.395 4.35945 131.554 3.99545 131.769 3.67811C131.983 3.35145 132.263 3.09478 132.609 2.90811C132.954 2.71211 133.374 2.61411 133.869 2.61411C134.139 2.61411 134.396 2.66078 134.639 2.75411C134.891 2.83811 135.115 2.95945 135.311 3.11811C135.507 3.27678 135.67 3.46345 135.801 3.67811C135.931 3.88345 136.015 4.11211 136.053 4.36411Z" fill="#34C759"/>
<path d="M141.866 1.00411V11.0001H144.064V6.68811H148.11V11.0001H150.308V1.00411H148.11V4.84011H144.064V1.00411H141.866Z" fill="#34C759"/>
<path d="M154.343 1.00411V11.0001H161.931V9.15211H156.541V6.70211H161.385V4.99411H156.541V2.85211H161.819V1.00411H154.343Z" fill="#34C759"/>
<path d="M167.719 5.52611V2.71211H170.127C170.631 2.71211 171.009 2.82411 171.261 3.04811C171.513 3.26278 171.639 3.61278 171.639 4.09811C171.639 4.60211 171.513 4.96611 171.261 5.19011C171.009 5.41411 170.631 5.52611 170.127 5.52611H167.719ZM165.521 1.00411V11.0001H167.719V7.09411H169.917C170.467 7.09411 170.864 7.21545 171.107 7.45811C171.349 7.70078 171.508 8.08345 171.583 8.60611C171.639 9.00745 171.681 9.42745 171.709 9.86611C171.737 10.3048 171.811 10.6828 171.933 11.0001H174.131C174.028 10.8601 173.949 10.6921 173.893 10.4961C173.846 10.2908 173.809 10.0761 173.781 9.85211C173.762 9.62811 173.748 9.40878 173.739 9.19411C173.729 8.97945 173.72 8.79278 173.711 8.63411C173.692 8.38211 173.655 8.13011 173.599 7.87811C173.552 7.62611 173.473 7.39745 173.361 7.19211C173.249 6.97745 173.104 6.79545 172.927 6.64611C172.749 6.48745 172.525 6.37078 172.255 6.29611V6.26811C172.815 6.04411 173.216 5.71745 173.459 5.28811C173.711 4.85878 173.837 4.35011 173.837 3.76211C173.837 3.37945 173.767 3.02478 173.627 2.69811C173.496 2.36211 173.3 2.06811 173.039 1.81611C172.787 1.56411 172.479 1.36811 172.115 1.22811C171.76 1.07878 171.359 1.00411 170.911 1.00411H165.521Z" fill="#34C759"/>
</svg>
